<svg width="1024" height="238" xmlns="http://www.w3.org/2000/svg" xml:space="preserve" enable-background="new 0 0 1024 1024" version="1.1">

 <g>
  <title>Layer 1</title>
  <path id="svg_1" d="m538.44,62.9l0,42.77l-20.13,0l0,17.61l-105.67,0q-2.51,8.8 -5.03,16.35l103.15,0l0,16.35q-15.09,21.39 -36.48,36.48q27.68,8.81 62.9,12.58l-10.07,21.39q-40.25,-6.29 -74.21,-22.64q-30.19,16.35 -66.67,23.9l-10.07,-21.39q31.45,-3.77 54.09,-12.58q-17.61,-12.58 -35.22,-28.93q-20.13,37.74 -51.57,59.12l-11.33,-20.12q40.26,-27.68 57.87,-80.51l-33.96,0l0,-17.61l-18.87,0l0,-42.77l33.96,0q-3.77,-10.07 -7.55,-18.87l22.65,-3.78q3.77,10.07 7.54,22.65l32.71,0q-3.77,-11.32 -6.29,-20.13l21.39,-3.77q3.77,11.32 7.54,23.9l27.68,0q8.8,-13.84 15.09,-28.94q-61.64,5.04 -144.66,5.04l-6.29,-20.13q106.92,0 179.89,-10.06l11.32,20.12q-18.87,3.78 -40.26,5.03l20.13,6.29q-5.03,12.58 -11.32,22.65l37.74,0zm-179.89,40.25l37.74,0l2.52,-15.09l22.64,2.51l-2.52,12.58l95.61,0l0,-18.87l-155.99,0l0,18.87zm55.35,55.35q16.35,13.84 36.48,23.9q18.87,-11.32 32.71,-23.9l-69.19,0zm167.94,-75.48l17.61,-69.18l22.64,3.77l-12.58,44.03l36.48,0q6.29,-26.42 10.06,-55.35l22.65,2.52q-3.78,28.93 -10.07,52.83l109.44,0l0,21.38l-115.73,0q-2.51,12.58 -6.29,22.65l94.35,0l0,18.87q-10.06,28.93 -35.22,52.83q26.41,15.09 65.41,27.67l-11.32,21.39q-42.77,-16.35 -72.96,-33.97q-28.94,18.87 -69.19,35.23l-11.32,-21.39q35.22,-12.58 60.38,-27.67q-22.64,-18.87 -33.96,-40.26q-26.42,52.84 -64.16,84.28l-12.58,-21.38q49.06,-42.77 74.22,-118.25l-57.86,0zm76.73,42.77q11.32,21.39 36.48,39q22.64,-17.61 32.71,-39l-69.19,0zm60.38,-119.5q23.9,18.87 41.51,36.48l-16.35,16.35q-13.84,-18.87 -40.25,-37.74l15.09,-15.09zm125.79,104.41l0,28.93l54.1,0l0,-28.93l-54.1,0zm54.1,50.32l-54.1,0l0,18.86l-22.64,0l0,-142.14l76.74,0l0,-30.19l21.38,0l0,30.19l77.36,0l0,123.28l-77.36,0l0,23.9q0,16.35 15.1,16.35l51.57,0q7.55,0 11.95,-3.77q2.52,-2.52 3.78,-25.16l21.38,7.54q-1.26,28.94 -7.55,36.49q-7.55,6.28 -25.79,6.28l-60.38,0q-31.44,0 -31.44,-33.96l0,-27.67zm21.38,-21.39l55.35,0l0,-28.93l-55.35,0l0,28.93zm55.35,-50.32l0,-30.19l-55.35,0l0,30.19l55.35,0zm-76.73,-30.19l-54.1,0l0,30.19l54.1,0l0,-30.19zm-783.7,88.06q6.92,0.63 7.55,7.55q-0.63,6.91 -7.55,7.54q-6.92,-0.63 -7.55,-7.54q0.63,-6.92 7.55,-7.55zm68.56,22.01q6.29,0.63 6.92,6.92q-0.63,6.92 -6.92,7.55q-6.92,-0.63 -7.55,-7.55q0.63,-6.29 7.55,-6.92zm106.92,18.24q1.89,-1.26 2.52,-2.51q0.63,-1.89 -6.92,-6.29q-4.4,-3.15 -12.58,-1.26l-1.89,0q-6.29,0 -11.32,-3.15q-5.03,-3.77 -6.29,-5.66q-3.14,-5.03 1.26,-9.43q5.66,-3.77 10.06,0.63q1.26,1.88 2.52,3.14q7.55,-14.46 8.81,-30.19q1.25,-15.72 -9.44,-32.7q-36.48,-53.47 -103.78,-54.72q-20.13,0 -46.54,1.25q-60.38,3.78 -84.28,-2.51l-0.63,-0.63q-6.92,-1.89 -10.7,-5.66q-3.77,-5.03 0.63,-10.07q5.03,-3.77 9.44,0.63q0.63,0 1.26,0.63q10.06,-8.17 23.27,-13.21l2.51,-1.25q-11.32,0.63 -25.16,5.66q-18.24,7.54 -19.49,12.58q-2.52,10.06 8.8,17.61q10.69,7.55 20.13,10.69q11.95,5.03 36.48,10.06q24.53,5.04 40.25,6.29q17.61,2.52 23.9,8.18q20.13,-13.21 25.16,-16.35q5.66,-2.52 10.07,2.51q2.51,5.66 -2.52,9.44q-29.56,16.98 -61.64,39.62q-32.08,22.64 -40.25,36.48q-1.89,5.03 -2.52,13.21q0,6.92 4.4,15.72q11.95,24.53 56.61,33.97q49.06,8.8 81.14,-3.77q31.45,-12.58 39.62,-25.16l-2.51,-2.52q-3.15,-5.66 1.26,-10.06q5.66,-3.15 10.06,1.25q1.26,1.26 5.03,3.15q4.4,1.26 7.55,2.52q3.77,0.62 6.92,1.88q5.03,1.89 8.8,0zm-186.17,-76.1q-4.4,-1.89 -6.92,-1.26q0.63,1.89 3.14,4.4q1.89,-1.88 3.78,-3.14zm188.69,55.98q5.03,3.14 10.06,8.17q5.03,5.03 3.15,13.84q-2.52,6.92 -8.81,10.06l-0.63,0.63q-9.43,4.4 -19.5,0.63q-3.14,-1.26 -6.29,-1.89q-2.51,-0.62 -4.4,-1.88q-8.17,13.21 -28.93,23.9q-19.5,10.69 -46.86,15.09q-27.36,4.41 -61.32,-2.52q-50.32,-11.32 -66.04,-40.89q-5.67,-11.95 -5.67,-22.01q0.63,-11.32 3.78,-18.87q6.92,-12.58 27.67,-28.93q-5.03,-5.66 -5.66,-13.84q0,-6.29 5.03,-10.06q6.92,-3.15 15.1,-1.89q8.18,1.89 13.84,5.03q6.29,-4.4 12.58,-7.54q-5.04,-1.89 -11.95,-3.15q-15.73,-1.26 -40.89,-6.29q-26.41,-5.66 -40.25,-11.32q-29.56,-13.21 -33.97,-25.16q-5.66,-13.21 -1.25,-20.76q6.29,-13.2 27.36,-20.44q21.07,-7.24 36.79,-7.24q13.21,0.63 15.73,8.18q1.88,6.29 -4.09,10.38q-5.98,4.09 -16.04,9.12q-5.03,2.52 -10.69,5.67q14.46,0.62 32.07,0.62q17.61,-0.62 33.34,-1.25q26.42,-1.26 47.8,-1.26q74.22,1.89 114.47,61.01q11.95,19.5 11.32,37.74q-0.63,18.24 -7.54,33.33q5.03,0.63 10.69,3.78l0,0.01z" fill="#946CE6"/>
 </g>
</svg>